<svg xmlns="http://www.w3.org/2000/svg" viewBox="-5 -5 156 120"><g fill="#fff" stroke="#fff" stroke-linejoin="round"><path d="M0 0 H21.5 V91 H102 L120 109 H0 Z" stroke-width="7"/><path d="M23 0 H31.3 V37 L68 0 H99.5 L57 43.5 L97.8 88.7 H67 L31.3 51.5 V88.7 H23 Z" stroke-width="7"/><path d="M126.53 24.66 A24.8 24.8 0 1 0 123.17 63.06" fill="none" stroke-width="10"/><path d="M120.86 31.72 A15.8 15.8 0 1 0 122.93 50.49" fill="none" stroke-width="10"/><path d="M105 40 H146 V45 H105 Z M105 48.2 H124.3 V53.2 H105 Z M127 48.2 H146 V53.2 H132 V110 L127 105 Z" stroke-width="7"/></g><path d="M0 0 H21.5 V91 H102 L120 109 H0 Z" fill="#050608"/><path d="M23 0 H31.3 V37 L68 0 H99.5 L57 43.5 L97.8 88.7 H67 L31.3 51.5 V88.7 H23 Z" fill="#DC142E" stroke="#fff" stroke-width="3.4" paint-order="stroke"/><g fill="none" stroke="#DC142E" stroke-width="3"><path d="M126.53 24.66 A24.8 24.8 0 1 0 123.17 63.06"/><path d="M120.86 31.72 A15.8 15.8 0 1 0 122.93 50.49"/></g><path fill="#DC142E" d="M105 40 H146 V45 H105 Z M105 48.2 H124.3 V53.2 H105 Z M127 48.2 H146 V53.2 H132 V110 L127 105 Z"/></svg>
